<svg width="133" height="62" viewBox="0 0 133 62" fill="none" xmlns="http://www.w3.org/2000/svg">
<path d="M16.016 49.52C14.0747 49.52 12.2373 49.2773 10.504 48.792C8.77067 48.3067 7.228 47.5787 5.876 46.608C4.524 45.6027 3.44933 44.372 2.652 42.916C1.88933 41.46 1.47333 39.7613 1.404 37.82C1.404 37.508 1.508 37.248 1.716 37.04C1.924 36.7973 2.20133 36.676 2.548 36.676H8.476C8.92667 36.676 9.27333 36.7973 9.516 37.04C9.79333 37.2827 10.0013 37.6293 10.14 38.08C10.3133 39.1893 10.6773 40.0907 11.232 40.784C11.7867 41.4773 12.48 41.9973 13.312 42.344C14.1787 42.656 15.1493 42.812 16.224 42.812C18.2 42.812 19.708 42.1707 20.748 40.888C21.8227 39.6053 22.36 37.7853 22.36 35.428V19.516H5.044C4.69733 19.516 4.40267 19.3947 4.16 19.152C3.91733 18.9093 3.796 18.6147 3.796 18.268V13.9C3.796 13.5187 3.91733 13.2067 4.16 12.964C4.40267 12.7213 4.69733 12.6 5.044 12.6H29.536C29.9173 12.6 30.2293 12.7213 30.472 12.964C30.7147 13.2067 30.836 13.5187 30.836 13.9V35.636C30.836 38.6173 30.212 41.148 28.964 43.228C27.716 45.2733 25.9827 46.8333 23.764 47.908C21.5453 48.9827 18.9627 49.52 16.016 49.52ZM39.5269 49C39.1802 49 38.8682 48.8787 38.5909 48.636C38.3482 48.3933 38.2269 48.0813 38.2269 47.7V13.9C38.2269 13.5187 38.3482 13.2067 38.5909 12.964C38.8682 12.7213 39.1802 12.6 39.5269 12.6H44.3629C44.8829 12.6 45.2642 12.7387 45.5069 13.016C45.7842 13.2933 45.9749 13.5013 46.0789 13.64L55.6469 31.268L65.3189 13.64C65.3882 13.5013 65.5442 13.2933 65.7869 13.016C66.0642 12.7387 66.4629 12.6 66.9829 12.6H71.8189C72.2002 12.6 72.5122 12.7213 72.7549 12.964C72.9976 13.2067 73.1189 13.5187 73.1189 13.9V47.7C73.1189 48.0813 72.9976 48.3933 72.7549 48.636C72.5122 48.8787 72.2002 49 71.8189 49H66.5149C66.1682 49 65.8736 48.8787 65.6309 48.636C65.3882 48.3933 65.2669 48.0813 65.2669 47.7V26.692L58.6629 39.068C58.4896 39.38 58.2642 39.6573 57.9869 39.9C57.7096 40.1427 57.3456 40.264 56.8949 40.264H54.4509C54.0002 40.264 53.6362 40.1427 53.3589 39.9C53.0816 39.6573 52.8562 39.38 52.6829 39.068L46.0789 26.692V47.7C46.0789 48.0813 45.9576 48.3933 45.7149 48.636C45.4722 48.8787 45.1776 49 44.8309 49H39.5269ZM82.1324 49C81.751 49 81.439 48.8787 81.1964 48.636C80.9537 48.3933 80.8324 48.0813 80.8324 47.7V13.9C80.8324 13.5187 80.9537 13.2067 81.1964 12.964C81.439 12.7213 81.751 12.6 82.1324 12.6H96.3284C99.1364 12.6 101.563 13.0333 103.608 13.9C105.688 14.7667 107.3 16.084 108.444 17.852C109.623 19.5853 110.212 21.752 110.212 24.352C110.212 26.9867 109.623 29.1707 108.444 30.904C107.3 32.6027 105.688 33.868 103.608 34.7C101.563 35.532 99.1364 35.948 96.3284 35.948H89.3604V47.7C89.3604 48.0813 89.239 48.3933 88.9964 48.636C88.7537 48.8787 88.4417 49 88.0604 49H82.1324ZM89.2044 29.5H96.0684C97.8364 29.5 99.2057 29.0667 100.176 28.2C101.182 27.3333 101.684 26.0333 101.684 24.3C101.684 22.7747 101.234 21.5267 100.332 20.556C99.4657 19.5853 98.0444 19.1 96.0684 19.1H89.2044V29.5Z" fill="#F5EBE0"/>
<rect x="121.943" y="33.5428" width="19.5429" height="3.6" rx="1.8" transform="rotate(-90 121.943 33.5428)" fill="#F5EBE0"/>
<rect x="133" y="22.7429" width="18" height="3.6" rx="1.8" transform="rotate(-180 133 22.7429)" fill="#F5EBE0"/>
</svg>
